STARTFONT 2.1
FONT -MIT-DANCER KST-Medium-R-Normal--46-16-200-200-P-47-ISO8859-1
SIZE 16 200 200
FONTBOUNDINGBOX 47 46 -21 -10
STARTPROPERTIES 17
ADD_STYLE_NAME ""
AVERAGE_WIDTH 47
CHARSET_ENCODING "1"
CHARSET_REGISTRY "ISO8859"
DEFAULT_CHAR 0
FAMILY "DANCER KST"
FONT_ASCENT 36
FONT_DESCENT 10
FOUNDRY "MIT"
PIXEL_SIZE 46
POINT_SIZE 16
RESOLUTION_X 200
RESOLUTION_Y 200
SETWIDTH_NAME "Normal"
SLANT "R"
SPACING "P"
WEIGHT_NAME "Medium"
ENDPROPERTIES
CHARS 51
STARTCHAR char32
ENCODING 32
SWIDTH 2914 0
DWIDTH 47 0
BBX 1 46 0 -10
BITMAP
00
00
00
00
00
00
00
00
00
00
00
00
00
00
00
00
00
00
00
00
00
00
00
00
00
00
00
00
00
00
00
00
00
00
00
00
00
00
00
00
00
00
00
00
00
00
ENDCHAR
STARTCHAR char43
ENCODING 43
SWIDTH 2914 0
DWIDTH 47 0
BBX 47 46 0 -10
BITMAP
000006000000
000006000000
000006000000
000006000000
000006000000
000006000000
000006000000
000006000000
000006000000
000006000000
000006000000
000006000000
000006000000
000006000000
000006000000
000006000000
000006000000
000006000000
000006000000
000006000000
FFFFFFFFFFFE
FFFFFFFFFFFE
000006000000
000006000000
000006000000
000006000000
000006000000
000006000000
000006000000
000006000000
000006000000
000006000000
000006000000
000006000000
000006000000
000006000000
000006000000
000006000000
000006000000
000006000000
000006000000
000006000000
000006000000
000006000000
000006000000
000000000000
ENDCHAR
STARTCHAR char45
ENCODING 45
SWIDTH 2914 0
DWIDTH 47 0
BBX 47 46 0 -10
BITMAP
000000000000
000000000000
000000000000
000000000000
000000000000
000000000000
000000000000
000000000000
000000000000
000000000000
000000000000
000000000000
000000000000
000000000000
000000000000
000000000000
000000000000
000000000000
000000000000
000000000000
FFFFFFFFFFFE
FFFFFFFFFFFE
000000000000
000000000000
000000000000
000000000000
000000000000
000000000000
000000000000
000000000000
000000000000
000000000000
000000000000
000000000000
000000000000
000000000000
000000000000
000000000000
000000000000
000000000000
000000000000
000000000000
000000000000
000000000000
000000000000
000000000000
ENDCHAR
STARTCHAR char46
ENCODING 46
SWIDTH 2914 0
DWIDTH 47 0
BBX 9 46 16 -10
BITMAP
0000
0000
0000
0000
0000
0000
0000
0000
0000
0000
0000
0000
0000
0000
0000
0000
0000
3E00
7F00
FF80
FF80
FF80
FF80
FF80
7F00
3E00
0000
0000
0000
0000
0000
0000
0000
0000
0000
0000
0000
0000
0000
0000
0000
0000
0000
0000
0000
0000
ENDCHAR
STARTCHAR char48
ENCODING 48
SWIDTH 2914 0
DWIDTH 47 0
BBX 10 46 16 -10
BITMAP
0000
0000
0000
0000
0000
0000
0000
0000
0000
0000
0000
0000
0000
0000
1E00
3F00
7380
61C0
61C0
6380
6780
6D80
7980
7180
E180
E180
7380
3F00
1E00
0000
0000
0000
0000
0000
0000
0000
0000
0000
0000
0000
0000
0000
0000
0000
0000
0000
ENDCHAR
STARTCHAR char49
ENCODING 49
SWIDTH 2914 0
DWIDTH 47 0
BBX 8 46 17 -10
BITMAP
00
00
00
00
00
00
00
00
00
00
00
00
00
00
18
38
78
18
18
18
18
18
18
18
18
18
18
FF
FF
00
00
00
00
00
00
00
00
00
00
00
00
00
00
00
00
00
ENDCHAR
STARTCHAR char50
ENCODING 50
SWIDTH 2914 0
DWIDTH 47 0
BBX 9 46 16 -10
BITMAP
0000
0000
0000
0000
0000
0000
0000
0000
0000
0000
0000
0000
0000
0000
3E00
7F00
C180
C180
0180
0180
0300
0600
0C00
1800
3000
6000
C000
FF80
FF80
0000
0000
0000
0000
0000
0000
0000
0000
0000
0000
0000
0000
0000
0000
0000
0000
0000
ENDCHAR
STARTCHAR char51
ENCODING 51
SWIDTH 2914 0
DWIDTH 47 0
BBX 9 46 16 -10
BITMAP
0000
0000
0000
0000
0000
0000
0000
0000
0000
0000
0000
0000
0000
0000
3E00
7F00
C380
C180
0180
0300
1E00
1F00
0180
0180
0180
C180
C380
7F00
3E00
0000
0000
0000
0000
0000
0000
0000
0000
0000
0000
0000
0000
0000
0000
0000
0000
0000
ENDCHAR
STARTCHAR char52
ENCODING 52
SWIDTH 2914 0
DWIDTH 47 0
BBX 9 46 16 -10
BITMAP
0000
0000
0000
0000
0000
0000
0000
0000
0000
0000
0000
0000
0000
0000
0C00
0C00
1800
1800
3000
3600
6600
6600
C600
C600
FF80
FF80
0600
0600
0600
0000
0000
0000
0000
0000
0000
0000
0000
0000
0000
0000
0000
0000
0000
0000
0000
0000
ENDCHAR
STARTCHAR char53
ENCODING 53
SWIDTH 2914 0
DWIDTH 47 0
BBX 9 46 16 -10
BITMAP
0000
0000
0000
0000
0000
0000
0000
0000
0000
0000
0000
0000
0000
0000
FF00
FF00
C000
C000
C000
C000
FE00
FF00
0380
0180
0180
C180
C380
7F00
3E00
0000
0000
0000
0000
0000
0000
0000
0000
0000
0000
0000
0000
0000
0000
0000
0000
0000
ENDCHAR
STARTCHAR char54
ENCODING 54
SWIDTH 2914 0
DWIDTH 47 0
BBX 9 46 16 -10
BITMAP
0000
0000
0000
0000
0000
0000
0000
0000
0000
0000
0000
0000
0000
0000
3E00
7F00
C180
C180
C000
C000
DE00
FF00
E380
C180
C180
C180
E380
7F00
3E00
0000
0000
0000
0000
0000
0000
0000
0000
0000
0000
0000
0000
0000
0000
0000
0000
0000
ENDCHAR
STARTCHAR char55
ENCODING 55
SWIDTH 2914 0
DWIDTH 47 0
BBX 9 46 16 -10
BITMAP
0000
0000
0000
0000
0000
0000
0000
0000
0000
0000
0000
0000
0000
0000
FF80
FF80
0180
0300
0300
0600
0600
0C00
0C00
1800
1800
3000
3000
6000
6000
0000
0000
0000
0000
0000
0000
0000
0000
0000
0000
0000
0000
0000
0000
0000
0000
0000
ENDCHAR
STARTCHAR char56
ENCODING 56
SWIDTH 2914 0
DWIDTH 47 0
BBX 10 46 16 -10
BITMAP
0000
0000
0000
0000
0000
0000
0000
0000
0000
0000
0000
0000
0000
0000
1E00
3F00
6180
6180
6180
3300
1E00
3F00
7380
E1C0
C0C0
C0C0
E1C0
7F80
3F00
0000
0000
0000
0000
0000
0000
0000
0000
0000
0000
0000
0000
0000
0000
0000
0000
0000
ENDCHAR
STARTCHAR char57
ENCODING 57
SWIDTH 2914 0
DWIDTH 47 0
BBX 9 46 16 -10
BITMAP
0000
0000
0000
0000
0000
0000
0000
0000
0000
0000
0000
0000
0000
0000
3E00
7F00
E380
C180
C180
C180
E380
7F80
3D80
0180
0180
C180
C380
7F00
3E00
0000
0000
0000
0000
0000
0000
0000
0000
0000
0000
0000
0000
0000
0000
0000
0000
0000
ENDCHAR
STARTCHAR char65
ENCODING 65
SWIDTH 2914 0
DWIDTH 47 0
BBX 9 46 16 -10
BITMAP
0000
0000
0000
0000
0000
0000
0000
0000
0000
0000
0000
0000
0000
0000
3E00
7F00
E380
C180
C180
C180
C180
C180
FF80
FF80
C180
C180
C180
C180
C180
0000
0000
0000
0000
0000
0000
0000
0000
0000
0000
0000
0000
0000
0000
0000
0000
0000
ENDCHAR
STARTCHAR char66
ENCODING 66
SWIDTH 2914 0
DWIDTH 47 0
BBX 9 46 16 -10
BITMAP
0000
0000
0000
0000
0000
0000
0000
0000
0000
0000
0000
0000
0000
0000
FC00
FE00
C700
C300
C300
C300
C600
FE00
FF00
C300
C180
C180
C180
C380
FF00
FC00
0000
0000
0000
0000
0000
0000
0000
0000
0000
0000
0000
0000
0000
0000
0000
0000
ENDCHAR
STARTCHAR char67
ENCODING 67
SWIDTH 2914 0
DWIDTH 47 0
BBX 9 46 16 -10
BITMAP
0000
0000
0000
0000
0000
0000
0000
0000
0000
0000
0000
0000
0000
0000
3E00
7F00
E380
C180
C000
C000
C000
C000
C000
C000
C000
C180
E380
7F00
3E00
0000
0000
0000
0000
0000
0000
0000
0000
0000
0000
0000
0000
0000
0000
0000
0000
0000
ENDCHAR
STARTCHAR char68
ENCODING 68
SWIDTH 2914 0
DWIDTH 47 0
BBX 9 46 16 -10
BITMAP
0000
0000
0000
0000
0000
0000
0000
0000
0000
0000
0000
0000
0000
0000
FE00
FF00
C380
C180
C180
C180
C180
C180
C180
C180
C180
C180
C380
FF00
FE00
0000
0000
0000
0000
0000
0000
0000
0000
0000
0000
0000
0000
0000
0000
0000
0000
0000
ENDCHAR
STARTCHAR char69
ENCODING 69
SWIDTH 2914 0
DWIDTH 47 0
BBX 9 46 16 -10
BITMAP
0000
0000
0000
0000
0000
0000
0000
0000
0000
0000
0000
0000
0000
0000
FF80
FF80
C000
C000
C000
C000
FE00
FE00
C000
C000
C000
C000
C000
FF80
FF80
0000
0000
0000
0000
0000
0000
0000
0000
0000
0000
0000
0000
0000
0000
0000
0000
0000
ENDCHAR
STARTCHAR char70
ENCODING 70
SWIDTH 2914 0
DWIDTH 47 0
BBX 9 46 16 -10
BITMAP
0000
0000
0000
0000
0000
0000
0000
0000
0000
0000
0000
0000
0000
0000
FF80
FF80
C000
C000
C000
C000
C000
FE00
FE00
C000
C000
C000
C000
C000
C000
0000
0000
0000
0000
0000
0000
0000
0000
0000
0000
0000
0000
0000
0000
0000
0000
0000
ENDCHAR
STARTCHAR char71
ENCODING 71
SWIDTH 2914 0
DWIDTH 47 0
BBX 9 46 16 -10
BITMAP
0000
0000
0000
0000
0000
0000
0000
0000
0000
0000
0000
0000
0000
0000
3E00
7F00
E380
C180
C000
C000
C000
C000
C780
C780
C180
C180
E380
7F00
3E00
0000
0000
0000
0000
0000
0000
0000
0000
0000
0000
0000
0000
0000
0000
0000
0000
0000
ENDCHAR
STARTCHAR char72
ENCODING 72
SWIDTH 2914 0
DWIDTH 47 0
BBX 9 46 16 -10
BITMAP
0000
0000
0000
0000
0000
0000
0000
0000
0000
0000
0000
0000
0000
0000
C180
C180
C180
C180
C180
C180
FF80
FF80
C180
C180
C180
C180
C180
C180
C180
0000
0000
0000
0000
0000
0000
0000
0000
0000
0000
0000
0000
0000
0000
0000
0000
0000
ENDCHAR
STARTCHAR char73
ENCODING 73
SWIDTH 2914 0
DWIDTH 47 0
BBX 6 46 18 -10
BITMAP
00
00
00
00
00
00
00
00
00
00
00
00
00
00
FC
FC
30
30
30
30
30
30
30
30
30
30
30
FC
FC
00
00
00
00
00
00
00
00
00
00
00
00
00
00
00
00
00
ENDCHAR
STARTCHAR char74
ENCODING 74
SWIDTH 2914 0
DWIDTH 47 0
BBX 9 46 16 -10
BITMAP
0000
0000
0000
0000
0000
0000
0000
0000
0000
0000
0000
0000
0000
0000
0180
0180
0180
0180
0180
0180
0180
0180
0180
0180
0180
C180
C380
7F00
3E00
0000
0000
0000
0000
0000
0000
0000
0000
0000
0000
0000
0000
0000
0000
0000
0000
0000
ENDCHAR
STARTCHAR char75
ENCODING 75
SWIDTH 2914 0
DWIDTH 47 0
BBX 9 46 16 -10
BITMAP
0000
0000
0000
0000
0000
0000
0000
0000
0000
0000
0000
0000
0000
0000
C180
C300
C600
CC00
D800
F000
E000
E000
F000
D800
CC00
C600
C300
C180
C080
0000
0000
0000
0000
0000
0000
0000
0000
0000
0000
0000
0000
0000
0000
0000
0000
0000
ENDCHAR
STARTCHAR char76
ENCODING 76
SWIDTH 2914 0
DWIDTH 47 0
BBX 9 46 16 -10
BITMAP
0000
0000
0000
0000
0000
0000
0000
0000
0000
0000
0000
0000
0000
0000
C000
C000
C000
C000
C000
C000
C000
C000
C000
C000
C000
C000
C000
FF80
FF80
0000
0000
0000
0000
0000
0000
0000
0000
0000
0000
0000
0000
0000
0000
0000
0000
0000
ENDCHAR
STARTCHAR char77
ENCODING 77
SWIDTH 2914 0
DWIDTH 47 0
BBX 9 46 16 -10
BITMAP
0000
0000
0000
0000
0000
0000
0000
0000
0000
0000
0000
0000
0000
0000
C180
E380
F780
D580
DD80
DD80
C980
C180
C180
C180
C180
C180
C180
C180
C180
0000
0000
0000
0000
0000
0000
0000
0000
0000
0000
0000
0000
0000
0000
0000
0000
0000
ENDCHAR
STARTCHAR char78
ENCODING 78
SWIDTH 2914 0
DWIDTH 47 0
BBX 9 46 16 -10
BITMAP
0000
0000
0000
0000
0000
0000
0000
0000
0000
0000
0000
0000
0000
0000
C180
E180
E180
F180
F180
D980
D980
DD80
CD80
CD80
C780
C780
C380
C380
C180
0000
0000
0000
0000
0000
0000
0000
0000
0000
0000
0000
0000
0000
0000
0000
0000
0000
ENDCHAR
STARTCHAR char79
ENCODING 79
SWIDTH 2914 0
DWIDTH 47 0
BBX 9 46 16 -10
BITMAP
0000
0000
0000
0000
0000
0000
0000
0000
0000
0000
0000
0000
0000
0000
3E00
7F00
E380
C180
C180
C180
C180
C180
C180
C180
C180
C180
E380
7F00
3E00
0000
0000
0000
0000
0000
0000
0000
0000
0000
0000
0000
0000
0000
0000
0000
0000
0000
ENDCHAR
STARTCHAR char80
ENCODING 80
SWIDTH 2914 0
DWIDTH 47 0
BBX 9 46 16 -10
BITMAP
0000
0000
0000
0000
0000
0000
0000
0000
0000
0000
0000
0000
0000
0000
FE00
FF00
C380
C180
C180
C180
C380
FF00
FE00
C000
C000
C000
C000
C000
C000
0000
0000
0000
0000
0000
0000
0000
0000
0000
0000
0000
0000
0000
0000
0000
0000
0000
ENDCHAR
STARTCHAR char81
ENCODING 81
SWIDTH 2914 0
DWIDTH 47 0
BBX 10 46 16 -10
BITMAP
0000
0000
0000
0000
0000
0000
0000
0000
0000
0000
0000
0000
0000
0000
3E00
7F00
E380
C180
C180
C180
C180
C180
C180
C180
C180
C780
E780
7F00
3FC0
00C0
0000
0000
0000
0000
0000
0000
0000
0000
0000
0000
0000
0000
0000
0000
0000
0000
ENDCHAR
STARTCHAR char82
ENCODING 82
SWIDTH 2914 0
DWIDTH 47 0
BBX 9 46 16 -10
BITMAP
0000
0000
0000
0000
0000
0000
0000
0000
0000
0000
0000
0000
0000
0000
FE00
FF00
C380
C180
C180
C380
FF00
FE00
CC00
C600
C600
C300
C300
C180
C180
0000
0000
0000
0000
0000
0000
0000
0000
0000
0000
0000
0000
0000
0000
0000
0000
0000
ENDCHAR
STARTCHAR char83
ENCODING 83
SWIDTH 2914 0
DWIDTH 47 0
BBX 9 46 16 -10
BITMAP
0000
0000
0000
0000
0000
0000
0000
0000
0000
0000
0000
0000
0000
0000
3E00
7F00
C380
C180
C000
C000
7E00
3F00
0380
0180
0180
C180
C380
FF00
7E00
0000
0000
0000
0000
0000
0000
0000
0000
0000
0000
0000
0000
0000
0000
0000
0000
0000
ENDCHAR
STARTCHAR char84
ENCODING 84
SWIDTH 2914 0
DWIDTH 47 0
BBX 10 46 16 -10
BITMAP
0000
0000
0000
0000
0000
0000
0000
0000
0000
0000
0000
0000
0000
0000
FFC0
FFC0
0C00
0C00
0C00
0C00
0C00
0C00
0C00
0C00
0C00
0C00
0C00
0C00
0C00
0000
0000
0000
0000
0000
0000
0000
0000
0000
0000
0000
0000
0000
0000
0000
0000
0000
ENDCHAR
STARTCHAR char85
ENCODING 85
SWIDTH 2914 0
DWIDTH 47 0
BBX 9 46 16 -10
BITMAP
0000
0000
0000
0000
0000
0000
0000
0000
0000
0000
0000
0000
0000
0000
C180
C180
C180
C180
C180
C180
C180
C180
C180
C180
C180
C180
E380
7F00
3E00
0000
0000
0000
0000
0000
0000
0000
0000
0000
0000
0000
0000
0000
0000
0000
0000
0000
ENDCHAR
STARTCHAR char86
ENCODING 86
SWIDTH 2914 0
DWIDTH 47 0
BBX 10 46 16 -10
BITMAP
0000
0000
0000
0000
0000
0000
0000
0000
0000
0000
0000
0000
0000
0000
C0C0
C0C0
C0C0
C0C0
6180
6180
6180
3300
3300
3300
1200
1E00
1E00
0C00
0C00
0000
0000
0000
0000
0000
0000
0000
0000
0000
0000
0000
0000
0000
0000
0000
0000
0000
ENDCHAR
STARTCHAR char87
ENCODING 87
SWIDTH 2914 0
DWIDTH 47 0
BBX 9 46 16 -10
BITMAP
0000
0000
0000
0000
0000
0000
0000
0000
0000
0000
0000
0000
0000
0000
C180
C180
C180
C180
C180
C180
C180
C180
C980
DD80
D580
D580
F780
E380
C180
0000
0000
0000
0000
0000
0000
0000
0000
0000
0000
0000
0000
0000
0000
0000
0000
0000
ENDCHAR
STARTCHAR char88
ENCODING 88
SWIDTH 2914 0
DWIDTH 47 0
BBX 9 46 16 -10
BITMAP
0000
0000
0000
0000
0000
0000
0000
0000
0000
0000
0000
0000
0000
0000
C180
C180
6300
6300
3600
3600
1C00
1C00
1C00
3600
3600
6300
6300
C180
C180
0000
0000
0000
0000
0000
0000
0000
0000
0000
0000
0000
0000
0000
0000
0000
0000
0000
ENDCHAR
STARTCHAR char89
ENCODING 89
SWIDTH 2914 0
DWIDTH 47 0
BBX 10 46 16 -10
BITMAP
0000
0000
0000
0000
0000
0000
0000
0000
0000
0000
0000
0000
0000
0000
C0C0
C0C0
6180
6180
3300
3300
1E00
1E00
0C00
0C00
0C00
0C00
0C00
0C00
0C00
0000
0000
0000
0000
0000
0000
0000
0000
0000
0000
0000
0000
0000
0000
0000
0000
0000
ENDCHAR
STARTCHAR char90
ENCODING 90
SWIDTH 2914 0
DWIDTH 47 0
BBX 10 46 16 -10
BITMAP
0000
0000
0000
0000
0000
0000
0000
0000
0000
0000
0000
0000
0000
0000
FFC0
FFC0
0040
00C0
0180
0300
0600
0C00
1800
3000
6000
C000
8000
FFC0
FFC0
0000
0000
0000
0000
0000
0000
0000
0000
0000
0000
0000
0000
0000
0000
0000
0000
0000
ENDCHAR
STARTCHAR char97
ENCODING 97
SWIDTH 2914 0
DWIDTH 47 0
BBX 30 46 6 -10
BITMAP
00000000
00000000
00000000
00000000
00000000
00000000
FFFFFFFC
FFFFFFFC
C000000C
C000000C
C000000C
C000000C
C000000C
C000000C
C000000C
C000000C
C000000C
C000000C
C000000C
C000000C
C000000C
C000000C
C000000C
C000000C
C000000C
C000000C
C000000C
C000000C
C000000C
C000000C
C000000C
C000000C
C000000C
C000000C
FFFFFFFC
FFFFFFFC
000FE000
001FF000
001FF000
001FF000
000FE000
00038000
00000000
00000000
00000000
00000000
ENDCHAR
STARTCHAR char98
ENCODING 98
SWIDTH 2914 0
DWIDTH 47 0
BBX 36 46 0 -10
BITMAP
0000000000
0000000000
0000000000
0000000000
0000000000
0000000000
03FFFFFFF0
03FFFFFFF0
0300000030
0300000030
0300000030
0300000030
0300000030
0300000030
0300000030
3B00000030
7F00000030
7F00000030
FF00000030
FF00000030
FF00000030
7F00000030
7F00000030
3B00000030
0300000030
0300000030
0300000030
0300000030
0300000030
0300000030
0300000030
0300000030
0300000030
0300000030
03FFFFFFF0
03FFFFFFF0
0000000000
0000000000
0000000000
0000000000
0000000000
0000000000
0000000000
0000000000
0000000000
0000000000
ENDCHAR
STARTCHAR char99
ENCODING 99
SWIDTH 2914 0
DWIDTH 47 0
BBX 36 46 6 -10
BITMAP
0000000000
0000000000
0000000000
0000000000
0000000000
0000000000
FFFFFFFC00
FFFFFFFC00
C000000C00
C000000C00
C000000C00
C000000C00
C000000C00
C000000C00
C000000C00
C000000DC0
C000000FE0
C000000FE0
C000000FF0
C000000FF0
C000000FF0
C000000FE0
C000000FE0
C000000DC0
C000000C00
C000000C00
C000000C00
C000000C00
C000000C00
C000000C00
C000000C00
C000000C00
C000000C00
C000000C00
FFFFFFFC00
FFFFFFFC00
0000000000
0000000000
0000000000
0000000000
0000000000
0000000000
0000000000
0000000000
0000000000
0000000000
ENDCHAR
STARTCHAR char100
ENCODING 100
SWIDTH 2914 0
DWIDTH 47 0
BBX 30 46 6 -10
BITMAP
00038000
000FE000
001FF000
001FF000
001FF000
000FE000
FFFFFFFC
FFFFFFFC
C000000C
C000000C
C000000C
C000000C
C000000C
C000000C
C000000C
C000000C
C000000C
C000000C
C000000C
C000000C
C000000C
C000000C
C000000C
C000000C
C000000C
C000000C
C000000C
C000000C
C000000C
C000000C
C000000C
C000000C
C000000C
C000000C
FFFFFFFC
FFFFFFFC
00000000
00000000
00000000
00000000
00000000
00000000
00000000
00000000
00000000
00000000
ENDCHAR
STARTCHAR char101
ENCODING 101
SWIDTH 2914 0
DWIDTH 47 0
BBX 30 46 6 -10
BITMAP
00000000
00000000
00000000
00000000
00000000
00000000
FFFFFFFC
FFFFFFFC
C000000C
C000000C
C000000C
C000000C
C000000C
C000000C
C000000C
C000000C
C000000C
C000000C
C000000C
C000000C
C000000C
C000000C
C000000C
C000000C
C000000C
C000000C
C000000C
C000000C
C000000C
C000000C
C000000C
C000000C
C000000C
C000000C
FFFFFFFC
FFFFFFFC
00000000
00000000
00000000
00000000
00000000
00000000
00000000
00000000
00000000
00000000
ENDCHAR
STARTCHAR char112
ENCODING 112
SWIDTH 2914 0
DWIDTH 47 0
BBX 30 46 6 -10
BITMAP
00000000
00000000
00000000
00000000
00000000
00000000
F0F87C3C
80000004
80000004
80000004
00000000
00000000
00000000
00000000
80000004
80000004
80000004
80000004
80000004
00000000
00000000
00000000
00000000
80000004
80000004
80000004
80000004
80000004
00000000
00000000
00000000
00000000
80000004
80000004
80000004
F0F87C3C
00000000
00000000
00000000
00000000
00000000
00000000
00000000
00000000
00000000
00000000
ENDCHAR
STARTCHAR char119
ENCODING 119
SWIDTH 2914 0
DWIDTH 47 0
BBX 26 46 8 -10
BITMAP
00000000
00000000
00000000
00000000
00000000
00000000
00000000
00000000
FFFFFFC0
FFFFFFC0
FFFFFFC0
FFFFFFC0
FFFFFFC0
FFFFFFC0
FFFFFFC0
FFFFFFC0
FFFFFFC0
FFFFFFC0
FFFFFFC0
FFFFFFC0
FFFFFFC0
FFFFFFC0
FFFFFFC0
FFFFFFC0
FFFFFFC0
FFFFFFC0
FFFFFFC0
FFFFFFC0
FFFFFFC0
FFFFFFC0
FFFFFFC0
FFFFFFC0
FFFFFFC0
FFFFFFC0
00000000
00000000
00000000
00000000
00000000
00000000
00000000
00000000
00000000
00000000
00000000
00000000
ENDCHAR
STARTCHAR char120
ENCODING 120
SWIDTH 2914 0
DWIDTH 47 0
BBX 26 46 8 -10
BITMAP
00000000
00000000
00000000
00000000
00000000
00000000
00000000
00000000
00800800
01001000
02002000
04004000
08008000
10010000
20020000
40040040
80080080
00100100
00200200
00400400
00800800
01001000
02002000
04004000
08008000
10010000
20020000
40040040
80080080
00100100
00200200
00400400
00800800
01001000
00000000
00000000
00000000
00000000
00000000
00000000
00000000
00000000
00000000
00000000
00000000
00000000
ENDCHAR
STARTCHAR char121
ENCODING 121
SWIDTH 2914 0
DWIDTH 47 0
BBX 18 46 12 -10
BITMAP
000000
000000
000000
000000
000000
000000
000000
000000
000000
000000
000000
000000
FFFFC0
800040
800040
800040
800040
87F840
840840
840840
840840
840840
840840
840840
87F840
800040
800040
800040
800040
FFFFC0
000000
000000
000000
000000
000000
000000
000000
000000
000000
000000
000000
000000
000000
000000
000000
000000
ENDCHAR
STARTCHAR char122
ENCODING 122
SWIDTH 2914 0
DWIDTH 47 0
BBX 25 46 9 -10
BITMAP
00000000
00000000
00000000
00000000
00000000
00000000
00000000
00000000
00000000
AAAAAA80
00000000
AAAAAA80
00000000
AAAAAA80
00000000
AAAAAA80
00000000
AAAAAA80
00000000
AAAAAA80
00000000
AAAAAA80
00000000
AAAAAA80
00000000
AAAAAA80
00000000
AAAAAA80
00000000
AAAAAA80
00000000
AAAAAA80
00000000
AAAAAA80
00000000
00000000
00000000
00000000
00000000
00000000
00000000
00000000
00000000
00000000
00000000
00000000
ENDCHAR
STARTCHAR char124
ENCODING 124
SWIDTH 2914 0
DWIDTH 47 0
BBX 2 46 21 -10
BITMAP
C0
C0
C0
C0
C0
C0
C0
C0
C0
C0
C0
C0
C0
C0
C0
C0
C0
C0
C0
C0
C0
C0
C0
C0
C0
C0
C0
C0
C0
C0
C0
C0
C0
C0
C0
C0
C0
C0
C0
C0
C0
C0
C0
C0
C0
C0
ENDCHAR
ENDFONT
